<svg version="1.1" id="Layer_1" xmlns="http://www.w3.org/2000/svg" xmlns:xlink="http://www.w3.org/1999/xlink" x="0px" y="0px"
	 width="100%" viewBox="0 0 500 500" enable-background="new 0 0 500 500" xml:space="preserve">
<path fill="#000000" opacity="1.000000" stroke="none" 
	d="
M271.000000,501.000000 
	C180.666687,501.000000 90.833374,501.000000 1.000048,501.000000 
	C1.000032,334.333405 1.000032,167.666794 1.000016,1.000138 
	C167.666565,1.000092 334.333130,1.000092 500.999756,1.000046 
	C500.999847,167.666519 500.999847,334.333038 500.999939,500.999786 
	C424.500000,501.000000 348.000000,501.000000 271.000000,501.000000 
M242.306625,208.060104 
	C240.873840,207.360199 239.078003,206.996033 238.068649,205.904556 
	C232.543701,199.930084 224.311905,197.684128 216.668549,200.342377 
	C209.756561,202.746246 204.269730,209.776291 203.961121,216.794861 
	C203.579773,225.466888 207.257507,231.867508 214.944122,235.934570 
	C216.239883,236.620163 217.556442,237.266403 218.863403,237.930817 
	C218.681030,238.471710 218.498657,239.012604 218.316284,239.553513 
	C214.703995,238.837158 211.091705,238.120804 206.599136,237.229889 
	C208.765717,241.575836 210.419357,244.892868 211.883224,247.829239 
	C214.433716,247.038055 216.394821,246.429703 218.824554,245.675995 
	C218.824554,254.360718 218.824554,262.002991 218.824554,269.780884 
	C220.922668,269.957886 222.844513,270.120026 225.319275,270.328827 
	C224.544998,272.328674 224.207535,275.148346 223.232193,275.389618 
	C218.443161,276.574402 213.506088,277.343353 208.579575,277.736816 
	C203.981354,278.104095 199.330750,277.815338 194.302292,277.815338 
	C194.699982,281.104431 194.930313,283.009369 195.198227,285.225128 
	C197.131470,284.960236 198.822403,284.951385 200.370651,284.476959 
	C206.291214,282.662659 212.089172,280.393890 218.081558,278.885223 
	C223.010147,277.644379 228.145309,277.234985 226.915283,269.921783 
	C247.007629,269.921783 266.457458,269.921783 286.309570,269.921783 
	C286.309570,264.041565 286.309570,258.445770 286.309570,253.168533 
	C295.012695,250.246262 301.140045,255.447571 307.654419,259.440247 
	C307.654419,248.559662 307.654419,238.406464 307.654419,227.799805 
	C300.890717,231.976181 294.934814,237.103577 286.391876,234.210419 
	C286.290222,233.109756 286.159698,231.696686 286.013550,230.114502 
	C284.598755,230.020981 283.396698,229.941528 281.635315,229.825089 
	C282.808563,228.474258 283.578125,227.654800 284.273987,226.776917 
	C293.192200,215.525589 290.433228,199.659256 278.248383,192.070404 
	C264.797577,183.693100 248.529694,190.839142 242.306625,208.060104 
z"/>
<path fill="#FAFAFA" opacity="1.000000" stroke="none" 
	d="
M242.632080,207.816406 
	C248.529694,190.839142 264.797577,183.693100 278.248383,192.070404 
	C290.433228,199.659256 293.192200,215.525589 284.273987,226.776917 
	C283.578125,227.654800 282.808563,228.474258 281.635315,229.825089 
	C283.396698,229.941528 284.598755,230.020981 286.013550,230.114502 
	C286.159698,231.696686 286.290222,233.109756 286.391876,234.210419 
	C294.934814,237.103577 300.890717,231.976181 307.654419,227.799805 
	C307.654419,238.406464 307.654419,248.559662 307.654419,259.440247 
	C301.140045,255.447571 295.012695,250.246262 286.309570,253.168533 
	C286.309570,258.445770 286.309570,264.041565 286.309570,269.921783 
	C266.457458,269.921783 247.007629,269.921783 226.915283,269.921783 
	C228.145309,277.234985 223.010147,277.644379 218.081558,278.885223 
	C212.089172,280.393890 206.291214,282.662659 200.370651,284.476959 
	C198.822403,284.951385 197.131470,284.960236 195.198227,285.225128 
	C194.930313,283.009369 194.699982,281.104431 194.302292,277.815338 
	C199.330750,277.815338 203.981354,278.104095 208.579575,277.736816 
	C213.506088,277.343353 218.443161,276.574402 223.232193,275.389618 
	C224.207535,275.148346 224.544998,272.328674 225.319275,270.328827 
	C222.844513,270.120026 220.922668,269.957886 218.824554,269.780884 
	C218.824554,262.002991 218.824554,254.360718 218.824554,245.675995 
	C216.394821,246.429703 214.433716,247.038055 211.883224,247.829239 
	C210.419357,244.892868 208.765717,241.575836 206.599136,237.229889 
	C211.091705,238.120804 214.703995,238.837158 218.316284,239.553513 
	C218.498657,239.012604 218.681030,238.471710 218.863403,237.930817 
	C217.556442,237.266403 216.239883,236.620163 214.944122,235.934570 
	C207.257507,231.867508 203.579773,225.466888 203.961121,216.794861 
	C204.269730,209.776291 209.756561,202.746246 216.668549,200.342377 
	C224.311905,197.684128 232.543701,199.930084 238.068649,205.904556 
	C239.078003,206.996033 240.873840,207.360199 242.632080,207.816406 
M265.542114,199.850113 
	C256.690338,201.050171 251.820145,208.067780 254.701797,215.470261 
	C256.901733,221.121506 262.434845,224.174988 268.259918,222.952423 
	C273.462006,221.860580 277.745178,216.677277 277.683624,211.548233 
	C277.610504,205.455246 273.329254,201.036438 265.542114,199.850113 
M225.816742,208.317291 
	C221.443634,207.344376 217.414658,208.594299 215.543137,212.415298 
	C214.266159,215.022415 214.148010,218.900681 215.057785,221.709930 
	C216.411987,225.891495 220.354370,227.516434 224.723633,226.892014 
	C229.104507,226.265915 232.059555,223.520844 232.790741,219.204514 
	C233.643661,214.169617 231.294937,210.575806 225.816742,208.317291 
M243.724777,230.015091 
	C245.830200,230.015091 247.935623,230.015091 250.041031,230.015091 
	C250.252090,229.632828 250.463150,229.250580 250.674210,228.868317 
	C248.351593,227.220612 246.197067,224.909653 243.622253,224.257126 
	C242.615860,224.002075 240.665253,227.472794 238.485886,230.015091 
	C240.929291,230.015091 241.919373,230.015091 243.724777,230.015091 
M273.736633,254.130371 
	C276.844818,254.300430 277.442017,252.208618 276.679321,250.040649 
	C276.408295,249.270355 273.620026,248.487961 272.731567,249.003876 
	C270.241364,250.449890 271.153473,252.386780 273.736633,254.130371 
M246.856903,250.678177 
	C247.030548,251.459518 247.204178,252.240845 247.377823,253.022171 
	C247.682785,252.945160 247.987747,252.868134 248.292709,252.791107 
	C248.043350,251.898636 247.794006,251.006165 246.856903,250.678177 
z"/>
<path fill="#0C0C0C" opacity="1.000000" stroke="none" 
	d="
M265.957275,199.861877 
	C273.329254,201.036438 277.610504,205.455246 277.683624,211.548233 
	C277.745178,216.677277 273.462006,221.860580 268.259918,222.952423 
	C262.434845,224.174988 256.901733,221.121506 254.701797,215.470261 
	C251.820145,208.067780 256.690338,201.050171 265.957275,199.861877 
z"/>
<path fill="#0C0C0C" opacity="1.000000" stroke="none" 
	d="
M226.178314,208.471497 
	C231.294937,210.575806 233.643661,214.169617 232.790741,219.204514 
	C232.059555,223.520844 229.104507,226.265915 224.723633,226.892014 
	C220.354370,227.516434 216.411987,225.891495 215.057785,221.709930 
	C214.148010,218.900681 214.266159,215.022415 215.543137,212.415298 
	C217.414658,208.594299 221.443634,207.344376 226.178314,208.471497 
z"/>
<path fill="#0C0C0C" opacity="1.000000" stroke="none" 
	d="
M243.317108,230.015091 
	C241.919373,230.015091 240.929291,230.015091 238.485886,230.015091 
	C240.665253,227.472794 242.615860,224.002075 243.622253,224.257126 
	C246.197067,224.909653 248.351593,227.220612 250.674210,228.868317 
	C250.463150,229.250580 250.252090,229.632828 250.041031,230.015091 
	C247.935623,230.015091 245.830200,230.015091 243.317108,230.015091 
z"/>
<path fill="#444444" opacity="1.000000" stroke="none" 
	d="
M273.348999,254.062073 
	C271.153473,252.386780 270.241364,250.449890 272.731567,249.003876 
	C273.620026,248.487961 276.408295,249.270355 276.679321,250.040649 
	C277.442017,252.208618 276.844818,254.300430 273.348999,254.062073 
z"/>
<path fill="#000000" opacity="1.000000" stroke="none" 
	d="
M247.200775,250.395935 
	C247.794006,251.006165 248.043350,251.898636 248.292709,252.791107 
	C247.987747,252.868134 247.682785,252.945160 247.377823,253.022171 
	C247.204178,252.240845 247.030548,251.459518 247.200775,250.395935 
z"/>
</svg>