<?xml version="1.0" encoding="UTF-8"?>
<svg version="1.1" xmlns="http://www.w3.org/2000/svg" width="1080" height="589">
<path d="M0 0 C12.09427556 9.78413304 17.76257547 22.51909469 19.6875 37.6875 C20.07184331 42.47218203 20.09962569 47.26476433 20.125 52.0625 C20.12975342 52.8258667 20.13450684 53.5892334 20.1394043 54.37573242 C20.12261009 59.87738991 20.12261009 59.87738991 19 61 C16.76142644 61.12411582 14.51894516 61.17803023 12.27709961 61.20532227 C11.5746965 61.21522186 10.8722934 61.22512146 10.14860535 61.23532104 C7.81655296 61.26702122 5.48448016 61.29172688 3.15234375 61.31640625 C1.53950965 61.33696844 -0.07331896 61.35796471 -1.68614197 61.37937927 C-5.93909275 61.43467592 -10.19209277 61.48405156 -14.44512939 61.53222656 C-18.78182375 61.58238631 -23.11844627 61.63810115 -27.45507812 61.69335938 C-35.96999141 61.80103375 -44.48496465 61.90245795 -53 62 C-52.37304073 63.60804139 -51.74205774 65.21451438 -51.109375 66.8203125 C-50.75842773 67.71508301 -50.40748047 68.60985352 -50.04589844 69.53173828 C-47.63252136 75.22717299 -44.40434715 77.62761581 -39 80.203125 C-30.59960948 83.5501556 -20.66701731 82.88882842 -12.2265625 79.98828125 C-7.51580245 77.89736495 -3.89411421 75.34117131 -1 71 C2.24271506 71.5590888 3.93057424 72.4132178 6 75 C6 75.66 6 76.32 6 77 C6.66 77 7.32 77 8 77 C8 77.66 8 78.32 8 79 C8.556875 79.226875 9.11375 79.45375 9.6875 79.6875 C12.63246684 81.35896766 14.68156544 83.55276352 17 86 C14.98282809 93.39629702 8.75161527 97.75509615 2.5625 101.6875 C-12.67779173 110.0933255 -31.25457195 111.5756446 -47.98046875 107.03125 C-61.58216955 102.38590846 -73.56154381 93.71483918 -80.1796875 80.67578125 C-81.17929744 78.46861332 -82.10999524 76.25333024 -83 74 C-83.34289062 73.21367187 -83.68578125 72.42734375 -84.0390625 71.6171875 C-89.97349157 55.45431157 -87.50273502 35.16290148 -80.45703125 19.73046875 C-73.87183732 7.38985064 -73.87183732 7.38985064 -68 5 C-68 4.34 -68 3.68 -68 3 C-49.96767672 -12.51618515 -19.23696423 -13.55804589 0 0 Z M-49.48828125 25.734375 C-52.09960028 29.64797974 -54 34.23925897 -54 39 C-40.14 39 -26.28 39 -12 39 C-12.8116701 28.87351383 -12.8116701 28.87351383 -18 21 C-22.96485115 17.01460928 -28.16447479 16.40783127 -34.39453125 16.69140625 C-41.27538838 17.50638033 -45.21438317 20.54807171 -49.48828125 25.734375 Z " fill="#FDFDFC" transform="translate(974,268)"/>
<path d="M0 0 C0.495 7.425 0.495 7.425 1 15 C2.65 13.35 4.3 11.7 6 10 C16.85903066 0.61973977 27.95996949 -1.83105654 42.02880859 -1.17041016 C51.20773416 -0.37688897 57.93135319 4.34856039 64 11 C72.22171386 21.81804455 71.46493612 37.21630833 71.59588623 50.18051147 C71.62547082 53.04559624 71.67273064 55.9099045 71.72509766 58.7746582 C71.79316457 62.51589475 71.8570019 66.25714492 71.91601562 69.99853516 C72.01474219 76.06379865 72.15164553 82.12533284 72.375 88.1875 C72.39385254 89.00283203 72.41270508 89.81816406 72.43212891 90.65820312 C72.64717453 95.98029473 73.78941905 100.13354121 76 105 C77.65533995 106.34736973 79.32012773 107.68334336 81 109 C81.375 111.6875 81.375 111.6875 81 114 C80 115 80 115 78.01951599 115.12025452 C77.15125687 115.11803391 76.28299774 115.11581329 75.38842773 115.11352539 C74.40748642 115.11344986 73.4265451 115.11337433 72.4158783 115.11329651 C71.3492244 115.10813522 70.2825705 115.10297394 69.18359375 115.09765625 C67.55430687 115.09553383 67.55430687 115.09553383 65.8921051 115.09336853 C62.40720925 115.08775048 58.92237658 115.07519492 55.4375 115.0625 C53.08138113 115.05748733 50.72526126 115.05292402 48.36914062 115.04882812 C42.57940536 115.03777519 36.78970719 115.02101951 31 115 C30.67 113.35 30.34 111.7 30 110 C30.7425 109.566875 31.485 109.13375 32.25 108.6875 C37.8732134 103.19208691 39.21134752 95.75171209 39.50170898 88.0949707 C39.52113202 85.53864732 39.51824923 82.98208241 39.49609375 80.42578125 C39.49624919 79.04819157 39.49774556 77.67060146 39.50050354 76.29301453 C39.50187755 73.42618129 39.48949475 70.55985445 39.46655273 67.69311523 C39.43808932 64.03837199 39.44094043 60.38446298 39.45364285 56.72965717 C39.46062967 53.89242044 39.45277809 51.05537315 39.44038582 48.21816063 C39.43374737 46.22197416 39.43798964 44.22576092 39.44248962 42.22956848 C39.35785833 34.05480409 38.93852128 27.75477719 33.75 21.125 C29.29271607 17.68073514 25.11069201 16.74737033 19.5625 17.0625 C13.40158777 17.95614768 9.01258731 21.04037552 4.625 25.3125 C1.05245163 31.22094538 0.70323203 37.62960918 0.76953125 44.35546875 C0.76949097 45.13144913 0.76945068 45.9074295 0.76940918 46.70692444 C0.7727715 49.20062975 0.79156312 51.6938849 0.8125 54.1875 C0.82136815 55.9065747 0.83007518 57.62565024 0.83862305 59.34472656 C0.89499719 68.31380547 0.9748534 77.2866309 1.3125 86.25 C1.34597534 87.40471802 1.34597534 87.40471802 1.38012695 88.58276367 C1.67851219 94.60502642 2.42864234 102.06637469 6.52148438 106.73583984 C8.31937468 108.28524229 8.31937468 108.28524229 11 110 C10.67 111.65 10.34 113.3 10 115 C3.03996553 115.02526838 -3.9200572 115.04283222 -10.88012695 115.05493164 C-13.24992312 115.05997341 -15.61971615 115.06680665 -17.98950195 115.07543945 C-21.38754039 115.0875119 -24.78553785 115.09322971 -28.18359375 115.09765625 C-29.25024765 115.10281754 -30.31690155 115.10797882 -31.4158783 115.11329651 C-32.39681961 115.11337204 -33.37776093 115.11344757 -34.38842773 115.11352539 C-35.25668686 115.115746 -36.12494598 115.11796661 -37.01951599 115.12025452 C-39 115 -39 115 -40 114 C-40.375 111.6875 -40.375 111.6875 -40 109 C-39.236875 108.401875 -38.47375 107.80375 -37.6875 107.1875 C-34.103601 104.27037291 -32.97918259 101.39999555 -32 97 C-31.55188373 91.58327527 -31.55266342 86.18047282 -31.56640625 80.75 C-31.56183806 79.16633888 -31.55653059 77.58267974 -31.55052185 75.99902344 C-31.54161945 72.69067293 -31.54398154 69.3825642 -31.55395508 66.07421875 C-31.56545117 61.850983 -31.54520949 57.62858264 -31.51603794 53.40545654 C-31.49762606 50.13845592 -31.49797809 46.87165378 -31.50367546 43.60461426 C-31.50382801 42.04820584 -31.49783866 40.4917834 -31.48538399 38.9354248 C-31.35136688 27.36582451 -31.35136688 27.36582451 -36 17 C-36.7425 16.443125 -37.485 15.88625 -38.25 15.3125 C-39.11625 14.6628125 -39.11625 14.6628125 -40 14 C-40.25 11.3125 -40.25 11.3125 -40 9 C-32.48468507 6.38457354 -24.88292668 4.26833641 -17.1875 2.25 C-15.97384766 1.92128906 -14.76019531 1.59257812 -13.50976562 1.25390625 C-12.34509766 0.94839844 -11.18042969 0.64289063 -9.98046875 0.328125 C-8.40108521 -0.09098145 -8.40108521 -0.09098145 -6.78979492 -0.51855469 C-4 -1 -4 -1 0 0 Z " fill="#F0415D" transform="translate(330,260)"/>
<path d="M0 0 C0.66209473 -0.00095673 1.32418945 -0.00191345 2.00634766 -0.00289917 C3.40852961 -0.00358076 4.8107147 -0.00172792 6.21289062 0.00244141 C8.36595713 0.00779004 10.51881502 0.0024958 12.671875 -0.00390625 C14.03125046 -0.00324546 15.3906258 -0.00196429 16.75 0 C18.61785156 0.00169189 18.61785156 0.00169189 20.5234375 0.00341797 C23.375 0.1328125 23.375 0.1328125 24.375 1.1328125 C24.48341167 3.41600101 24.5213201 5.70254876 24.53271484 7.98828125 C24.53779556 8.70548843 24.54287628 9.42269562 24.54811096 10.16163635 C24.55884002 11.72546147 24.56745018 13.28930219 24.57423019 14.85314941 C24.58600315 17.3341475 24.60545615 19.81497023 24.62734985 22.29589844 C24.68898811 29.35231613 24.74284217 36.40872055 24.77636719 43.46533203 C24.79741177 47.7784535 24.83280381 52.09126305 24.87712479 56.40420532 C24.89122028 58.0434703 24.89999255 59.68279056 24.90317917 61.32211304 C24.89532002 73.52323053 24.89532002 73.52323053 28.375 85.1328125 C31.81297107 88.46660263 36.04775128 88.86368741 40.68359375 89.1953125 C46.59283501 89.05808774 52.12542065 87.35118473 56.9375 83.8828125 C61.19902671 79.07493621 60.49840788 72.9441333 60.47265625 66.76049805 C60.47119598 66.06043137 60.46973572 65.36036469 60.4682312 64.63908386 C60.464451 63.13262401 60.45836219 61.62616848 60.45016479 60.11972618 C60.43732392 57.73685693 60.4308668 55.35404375 60.42602539 52.97114563 C60.4146446 47.92084254 60.39537416 42.87058625 60.375 37.8203125 C60.35140414 31.94924574 60.33103672 26.07820475 60.31906128 20.20710182 C60.31256943 17.85716377 60.30006722 15.50730586 60.28735352 13.15739441 C60.28372285 11.72431509 60.28037089 10.29123502 60.27734375 8.8581543 C60.27210693 7.60463669 60.26687012 6.35111908 60.26147461 5.05961609 C60.375 2.1328125 60.375 2.1328125 61.375 0.1328125 C65.77156173 0.10815746 70.1680872 0.08997408 74.56469727 0.07788086 C76.06144918 0.07284129 77.55819616 0.06600963 79.05493164 0.05737305 C81.20199807 0.04529091 83.34899962 0.03958059 85.49609375 0.03515625 C87.43633423 0.02730103 87.43633423 0.02730103 89.41577148 0.01928711 C92.375 0.1328125 92.375 0.1328125 93.375 1.1328125 C93.47277614 2.58530025 93.50131731 4.04251617 93.50198364 5.49829102 C93.50621338 6.91176315 93.50621338 6.91176315 93.51052856 8.35379028 C93.50749222 9.91696487 93.50749222 9.91696487 93.50439453 11.51171875 C93.50702301 13.1481282 93.50702301 13.1481282 93.50970459 14.81759644 C93.51412563 18.44351771 93.51118422 22.06939068 93.5078125 25.6953125 C93.50848547 28.20255543 93.50945543 30.70979831 93.51071167 33.21704102 C93.51218899 38.47966001 93.5101276 43.74226632 93.50537109 49.00488281 C93.49992851 55.09709452 93.50169118 61.18927276 93.5071975 67.28148365 C93.51227443 73.13182268 93.51174705 78.98214895 93.50881577 84.83248901 C93.50814624 87.32689417 93.50897579 89.82130018 93.51129532 92.31570435 C93.51382036 95.79512836 93.50998334 99.27448712 93.50439453 102.75390625 C93.50641876 103.79602264 93.50844299 104.83813904 93.51052856 105.91183472 C93.50770874 106.85414948 93.50488892 107.79646423 93.50198364 108.76733398 C93.5014181 110.00289284 93.5014181 110.00289284 93.50084114 111.26341248 C93.375 113.1328125 93.375 113.1328125 92.375 114.1328125 C90.30237924 114.22048362 88.22679706 114.23977123 86.15234375 114.23046875 C84.26225586 114.22563477 84.26225586 114.22563477 82.33398438 114.22070312 C80.99348891 114.21234653 79.65299412 114.20388157 78.3125 114.1953125 C76.96810058 114.1902991 75.6236994 114.18573592 74.27929688 114.18164062 C70.97782059 114.16980738 67.67643197 114.15332221 64.375 114.1328125 C62.375 107.3828125 62.375 107.3828125 62.375 105.1328125 C61.66214844 105.60332031 60.94929687 106.07382812 60.21484375 106.55859375 C47.69829732 114.69519123 36.59199566 118.10761454 21.5234375 115.671875 C11.21092965 112.88913479 2.83164126 107.40620017 -2.625 98.1328125 C-6.55110827 89.62225463 -7.78094244 81.43958271 -7.75439453 72.10205078 C-7.75614685 71.33210281 -7.75789917 70.56215485 -7.75970459 69.76887512 C-7.76407414 67.24693489 -7.76120424 64.72506583 -7.7578125 62.203125 C-7.75848653 60.44432563 -7.75945739 58.68552635 -7.76071167 56.92672729 C-7.76218164 53.2535513 -7.76005509 49.58039971 -7.75537109 45.90722656 C-7.74964894 41.18920534 -7.75297287 36.4712407 -7.75894356 31.75322151 C-7.76254661 28.12797616 -7.76141221 24.50274437 -7.75881577 20.87749863 C-7.75814709 19.13668689 -7.75897286 17.39587394 -7.76129532 15.65506363 C-7.76382036 13.23241119 -7.75998455 10.80985244 -7.75439453 8.38720703 C-7.75641876 7.66309128 -7.75844299 6.93897552 -7.76052856 6.19291687 C-7.73144303 -0.57326076 -6.54592048 0.00592928 0 0 Z " fill="#FDFDFD" transform="translate(666.625,260.8671875)"/>
<path d="M0 0 C6.19906282 5.91728724 9.71261363 11.78667515 10.125 20.5 C10.00208289 25.60105999 8.84064536 29.53249407 5.75 33.625 C0.47041905 37.82711545 -3.5404715 39.06496908 -10.25 38.625 C-16.70027422 37.0966701 -19.77072424 34.59369143 -23.296875 28.94921875 C-24.6383917 25.6778973 -24.80779806 22.361001 -25.125 18.875 C-25.98140549 11.11142211 -26.91199269 5.33713094 -33.25 0.1875 C-39.4124883 -3.02212932 -46.21125299 -3.51792987 -52.9140625 -1.62109375 C-64.5037343 2.84320581 -70.98393277 9.6155222 -76.4375 20.6875 C-81.12525179 31.40415181 -83.8861859 42.922313 -84.25 54.625 C-84.28867188 55.58696289 -84.28867188 55.58696289 -84.328125 56.56835938 C-85.07160403 76.88392376 -82.26502946 97.62800091 -68.41015625 113.51171875 C-57.74887183 123.94165523 -45.61785692 127.91355191 -30.98046875 127.94189453 C-19.97275558 127.75202554 -10.92678279 124.34133815 -2.25 117.625 C-1.30125 116.92375 -0.3525 116.2225 0.625 115.5 C2.67809322 113.68844716 4.21610715 111.88547368 5.75 109.625 C8.71175123 110.23777612 10.13058783 110.87872522 12.75 112.625 C10.81552677 122.9986127 1.61949184 132.323319 -6.58984375 138.33984375 C-23.10464382 148.85899517 -42.50737337 151.25174289 -61.66796875 148.01171875 C-79.46535434 143.68159385 -95.52264783 134.11080691 -105.59375 118.53515625 C-118.72170549 95.46834767 -122.86747326 67.94371962 -116.28515625 41.859375 C-109.73850393 21.40417455 -99.2209405 5.29901766 -80.14111328 -5.40869141 C-74.76381845 -8.15634606 -69.07454608 -9.83301783 -63.25 -11.375 C-62.32832031 -11.61992187 -61.40664062 -11.86484375 -60.45703125 -12.1171875 C-40.23975639 -16.58272779 -16.51539999 -12.78476395 0 0 Z " fill="#F0435E" transform="translate(205.25,228.375)"/>
<path d="M0 0 C1.61505556 -0.01654803 3.23003822 -0.04382344 4.84472656 -0.08203125 C7.17185491 -0.13683206 9.49726428 -0.15867769 11.82495117 -0.17333984 C12.54487747 -0.19600922 13.26480377 -0.21867859 14.00654602 -0.24203491 C17.78289759 -0.22614134 19.28717617 0.02339065 22.01831055 2.72119141 C23.6132662 5.34244942 25.00847894 7.94426925 26.30541992 10.72509766 C29.11208237 16.52601439 32.31972258 21.98503336 35.72216797 27.44921875 C38.61791992 32.14728274 38.61791992 32.14728274 38.61791992 34.35009766 C42.57923338 30.91517495 44.56265985 27.01898651 46.86791992 22.41259766 C47.96247983 20.237826 49.07181501 18.08267082 50.24487305 15.94897461 C51.71529721 13.24835459 51.71529721 13.24835459 53.1003418 9.91333008 C54.9618809 6.11061245 56.59094966 3.32331025 59.61791992 0.35009766 C65.37007546 -1.24734737 70.71664298 -0.89449372 76.61791992 -0.46240234 C78.17106279 -0.39710748 79.72446988 -0.33780647 81.27807617 -0.28466797 C85.06460451 -0.14217281 88.83833303 0.08144431 92.61791992 0.35009766 C93.61791992 3.35009766 93.61791992 3.35009766 92.65258789 5.56054688 C91.88906006 6.84469482 91.88906006 6.84469482 91.11010742 8.15478516 C90.25715088 9.60413452 90.25715088 9.60413452 89.38696289 11.08276367 C88.44941162 12.63821899 88.44941162 12.63821899 87.49291992 14.22509766 C86.86144043 15.28978271 86.22996094 16.35446777 85.5793457 17.45141602 C80.28436232 26.34163644 74.85162137 35.14663183 69.36010742 43.91650391 C68.65966309 45.04983154 68.65966309 45.04983154 67.94506836 46.20605469 C67.08543719 47.5948113 66.2143482 48.97656702 65.32983398 50.34960938 C63.19678287 53.55050813 63.19678287 53.55050813 62.84692383 57.23779297 C63.77745955 59.78718976 64.99900556 61.97165275 66.38354492 64.30712891 C67.2246582 65.72928711 67.2246582 65.72928711 68.08276367 67.18017578 C68.67186523 68.164375 69.2609668 69.14857422 69.86791992 70.16259766 C70.44155273 71.13519531 71.01518555 72.10779297 71.60620117 73.10986328 C74.06637376 77.24844518 76.53249552 81.332429 79.36401367 85.22900391 C81.31049255 87.924388 82.90348271 90.53193772 84.43041992 93.47509766 C87.39493122 99.05580953 90.69368284 104.3664209 94.07885742 109.69775391 C95.61791992 112.35009766 95.61791992 112.35009766 95.61791992 114.35009766 C90.74355001 114.57339495 85.87218032 114.73623648 80.99389648 114.84448242 C79.33679338 114.88961438 77.68004623 114.95094227 76.02416992 115.02905273 C62.38989952 115.65586865 62.38989952 115.65586865 58.3815918 112.70214844 C56.76084634 110.32678984 55.70604162 108.0100312 54.61791992 105.35009766 C53.58753445 103.5022642 52.54000204 101.66390872 51.47729492 99.83447266 C50.43645595 97.92539616 49.40002898 96.01390792 48.36791992 94.10009766 C47.8394043 93.13330078 47.31088867 92.16650391 46.76635742 91.17041016 C44.47846018 86.95464011 42.33346446 82.83613654 40.61791992 78.35009766 C39.95791992 78.35009766 39.29791992 78.35009766 38.61791992 78.35009766 C38.40651367 79.12740234 38.19510742 79.90470703 37.97729492 80.70556641 C36.12385758 85.67469582 33.52508586 90.08384708 30.86791992 94.66259766 C30.09834961 96.0112793 30.09834961 96.0112793 29.31323242 97.38720703 C28.27870841 99.18462751 27.22017298 100.96844428 26.13793945 102.73754883 C24.57213221 105.30063155 24.57213221 105.30063155 23.50024414 108.00366211 C22.13486803 110.85545034 21.15212989 112.43344705 18.61791992 114.35009766 C12.78924748 115.46689681 7.14448081 115.19943733 1.24291992 114.91259766 C-0.36764576 114.86741891 -1.97833263 114.82636017 -3.58911133 114.78955078 C-7.52310431 114.6906957 -11.45126022 114.53563337 -15.38208008 114.35009766 C-14.81283463 110.70500664 -13.86422528 108.0837166 -11.94067383 104.94384766 C-11.44365967 104.1244873 -10.94664551 103.30512695 -10.43457031 102.4609375 C-9.90162354 101.59936035 -9.36867676 100.7377832 -8.81958008 99.85009766 C-8.27309814 98.95371582 -7.72661621 98.05733398 -7.16357422 97.13378906 C-5.57688857 94.53475822 -3.98079914 91.94173844 -2.38208008 89.35009766 C-1.65248785 88.16025433 -0.92325621 86.97018973 -0.19458008 85.77978516 C0.42416992 84.77173828 1.04291992 83.76369141 1.68041992 82.72509766 C2.28885742 81.73251953 2.89729492 80.73994141 3.52416992 79.71728516 C5.18921404 77.03954629 6.88022456 74.38414882 8.58666992 71.73291016 C9.61804284 70.10538388 10.6492934 68.47778005 11.68041992 66.85009766 C12.43367554 65.70033447 12.43367554 65.70033447 13.20214844 64.52734375 C13.66032959 63.79854004 14.11851074 63.06973633 14.59057617 62.31884766 C15.00573486 61.67367187 15.42089355 61.02849609 15.84863281 60.36376953 C16.89521042 57.62426711 16.47751109 56.13062556 15.61791992 53.35009766 C14.50267993 51.00208647 14.50267993 51.00208647 13.06323242 48.68212891 C12.53616699 47.7976709 12.00910156 46.91321289 11.46606445 46.00195312 C10.89742676 45.06496582 10.32878906 44.12797852 9.74291992 43.16259766 C9.16010254 42.1895166 8.57728516 41.21643555 7.97680664 40.21386719 C3.82098791 33.29051491 -0.38606724 26.3977938 -4.61328125 19.51782227 C-8.29833797 13.51597388 -11.87352211 7.45714394 -15.38208008 1.35009766 C-12.70273422 -1.3292482 -3.77273971 0.02835782 0 0 Z " fill="#FDFDFC" transform="translate(788.382080078125,260.64990234375)"/>
<path d="M0 0 C10.89 0 21.78 0 33 0 C33 42.9 33 85.8 33 130 C54.6757554 129.63136576 54.6757554 129.63136576 76.35131836 129.25170898 C79.05582032 129.20776862 81.76032843 129.16420397 84.46484375 129.12109375 C85.17210098 129.10772476 85.87935822 129.09435577 86.60804749 129.08058167 C88.68127885 129.04177861 90.75452055 129.00929831 92.82788086 128.97827148 C93.99814316 128.95828598 95.16840546 128.93830048 96.37413025 128.91770935 C99 129 99 129 100 130 C100.09971786 131.91458282 100.13080589 133.83282317 100.1328125 135.75 C100.13410156 136.9153125 100.13539063 138.080625 100.13671875 139.28125 C100.13285156 140.5084375 100.12898437 141.735625 100.125 143 C100.12886719 144.2271875 100.13273438 145.454375 100.13671875 146.71875 C100.13542969 147.8840625 100.13414062 149.049375 100.1328125 150.25 C100.13168457 151.32765625 100.13055664 152.4053125 100.12939453 153.515625 C100 156 100 156 99 157 C95.92541971 157.09532429 92.87343909 157.12550074 89.79858398 157.11352539 C88.81715707 157.11364593 87.83573015 157.11376646 86.82456303 157.11389065 C83.63171728 157.11314124 80.43892912 157.10551176 77.24609375 157.09765625 C75.28129098 157.09618692 73.31648781 157.09516615 71.35168457 157.09460449 C64.04695043 157.08935062 56.74222466 157.07538955 49.4375 157.0625 C24.9659375 157.0315625 24.9659375 157.0315625 0 157 C0 105.19 0 53.38 0 0 Z " fill="#FDFDFD" transform="translate(546,218)"/>
<path d="M0 0 C11.30888002 8.97751091 17.29350545 20.84503209 19.5390625 35.015625 C20.79020964 48.13890429 20.79020964 48.13890429 17.5390625 53.015625 C14.6031189 53.37638855 14.6031189 53.37638855 10.79443359 53.35620117 C10.10163803 53.35663925 9.40884247 53.35707733 8.6950531 53.35752869 C6.40058399 53.35543532 4.10684176 53.33207968 1.8125 53.30859375 C0.22352498 53.30299971 -1.36545521 53.29872871 -2.95443726 53.29573059 C-7.14015953 53.28426658 -11.32557036 53.25478631 -15.51116943 53.22161865 C-19.78084093 53.19095111 -24.05056266 53.17723237 -28.3203125 53.16210938 C-36.70066389 53.12991784 -45.08076197 53.07870303 -53.4609375 53.015625 C-52.84419527 55.40354376 -52.22238722 57.78995162 -51.59765625 60.17578125 C-51.42520386 60.84565063 -51.25275146 61.51552002 -51.07507324 62.20568848 C-48.06571479 73.64544482 -43.35391924 80.99023735 -33.2890625 87.3984375 C-24.55866366 91.70342727 -13.19963965 91.44398038 -3.9140625 89.1328125 C2.62190977 86.62790942 7.65729895 82.99789545 12.5390625 78.015625 C16.4140625 79.890625 16.4140625 79.890625 17.5390625 81.015625 C17.94140625 83.17578125 17.94140625 83.17578125 17.5390625 86.015625 C15.79353692 88.37548107 14.12721848 90.36399644 12.1015625 92.453125 C11.55387207 93.02861084 11.00618164 93.60409668 10.44189453 94.19702148 C0.23941538 104.67206322 -11.47513627 110.01703136 -26.13452148 110.25732422 C-41.95195495 110.3108839 -56.7327136 107.24390171 -68.65625 95.98828125 C-82.94721323 80.36720672 -86.50177236 63.05127949 -85.62060547 42.48828125 C-84.67217031 27.80058818 -77.20783005 13.88017826 -66.4609375 4.015625 C-48.61580882 -10.99510723 -19.43805726 -13.33215455 0 0 Z M-44.6484375 7.203125 C-51.60292926 17.99457774 -54.14994226 30.28179636 -53.4609375 43.015625 C-50.511548 43.86372187 -47.88531075 44.14411015 -44.8203125 44.1484375 C-43.47187256 44.15133789 -43.47187256 44.15133789 -42.09619141 44.15429688 C-41.14405762 44.14978516 -40.19192383 44.14527344 -39.2109375 44.140625 C-38.23688965 44.13869141 -37.2628418 44.13675781 -36.25927734 44.13476562 C-27.96309822 44.08579654 -19.73001013 43.6790463 -11.4609375 43.015625 C-10.80899215 30.41134819 -11.07011415 15.43166994 -19.8984375 5.43359375 C-24.00027905 1.71117254 -27.88064037 0.43014883 -33.44140625 0.6640625 C-38.05475845 1.46716056 -41.35759224 3.91227974 -44.6484375 7.203125 Z " fill="#F0425E" transform="translate(506.4609375,266.984375)"/>
<path d="M0 0 C0.00586624 1.15321243 0.01173248 2.30642487 0.01777649 3.49458313 C0.07514579 14.39595475 0.14798119 25.29712962 0.23571491 36.19830036 C0.28032249 41.80186317 0.31959967 47.40535487 0.34643555 53.0090332 C0.37256454 58.42325141 0.41303441 63.8371946 0.46318626 69.25124168 C0.47979026 71.31031037 0.4913446 73.36942654 0.49761391 75.42855263 C-0.34535822 92.01116207 -0.34535822 92.01116207 5.52217102 106.75215149 C7.30190597 108.35308402 7.30190597 108.35308402 10 110 C9.67 111.65 9.34 113.3 9 115 C2.03996553 115.02526838 -4.9200572 115.04283222 -11.88012695 115.05493164 C-14.24992312 115.05997341 -16.61971615 115.06680665 -18.98950195 115.07543945 C-22.38754039 115.0875119 -25.78553785 115.09322971 -29.18359375 115.09765625 C-30.25024765 115.10281754 -31.31690155 115.10797882 -32.4158783 115.11329651 C-33.39681961 115.11337204 -34.37776093 115.11344757 -35.38842773 115.11352539 C-36.25668686 115.115746 -37.12494598 115.11796661 -38.01951599 115.12025452 C-40 115 -40 115 -41 114 C-41.04063832 112.33382885 -41.042721 110.66611905 -41 109 C-40.21109375 108.7628125 -39.4221875 108.525625 -38.609375 108.28125 C-35.89976989 107.2560923 -35.89976989 107.2560923 -34.890625 105.03125 C-33.44367534 99.31403429 -32.727474 93.69803588 -32.43359375 87.81640625 C-32.39288254 87.03660904 -32.35217133 86.25681183 -32.31022644 85.4533844 C-31.9153697 77.27493648 -31.81388852 69.10031107 -31.81469727 60.91333008 C-31.81249768 58.4348869 -31.79419388 55.95688171 -31.77539062 53.47851562 C-31.74601586 45.4756218 -31.96585627 37.55889373 -32.82421875 29.59765625 C-32.9282476 28.55671059 -32.9282476 28.55671059 -33.03437805 27.49473572 C-33.54414282 23.33839762 -34.50954867 20.37570312 -37 17 C-37.721875 16.505 -38.44375 16.01 -39.1875 15.5 C-39.785625 15.005 -40.38375 14.51 -41 14 C-41.25 11.3125 -41.25 11.3125 -41 9 C-33.80131065 6.44816701 -26.51812643 4.52047942 -19.09570312 2.72802734 C-17.10583041 2.24535009 -15.11942066 1.74982684 -13.1328125 1.25390625 C-11.8746875 0.94839844 -10.6165625 0.64289063 -9.3203125 0.328125 C-7.60739014 -0.09098145 -7.60739014 -0.09098145 -5.85986328 -0.51855469 C-3 -1 -3 -1 0 0 Z " fill="#F1425D" transform="translate(269,260)"/>
<path d="M0 0 C4.39436637 3.63012874 6.56752486 6.95446457 7.37109375 12.61328125 C7.51313995 18.38704134 7.0831298 22.61163868 3.59765625 27.33984375 C-0.867016 31.97917311 -5.59997442 33.25410156 -11.9375 33.625 C-18.24824252 33.39333983 -22.52120356 31.43950875 -27 27 C-30.20653105 21.8501168 -30.75559322 16.91881355 -30 11 C-27.96663572 4.22211908 -24.73137559 1.06207598 -18.625 -2.3125 C-11.97021845 -4.05541898 -6.00904358 -3.22970008 0 0 Z " fill="#F0435F" transform="translate(264,215)"/>
<path d="M0 0 C7.06676547 -0.36552235 10.87565997 0.79876044 16.75 4.9375 C19.77901155 7.71409392 20.8651109 9.67949989 21.28520203 13.79199219 C21.3015419 14.86610352 21.31788177 15.94021484 21.3347168 17.046875 C21.36936287 18.88028442 21.36936287 18.88028442 21.40470886 20.75073242 C21.41939713 22.07049072 21.43408539 23.39024902 21.44921875 24.75 C21.47050125 26.12802166 21.49246987 27.50603287 21.51509094 28.8840332 C21.56047843 31.77566718 21.59925402 34.66728991 21.63305664 37.55908203 C21.67627384 41.23264532 21.73305494 44.90583522 21.7946043 48.57913208 C21.84126212 51.42928168 21.88184233 54.27949334 21.92057228 57.12976074 C21.9484523 59.13244408 21.98023636 61.13507188 22.01213074 63.13769531 C22.09614334 70.82083279 21.80100314 78.35718973 21 86 C20.34 85.67 19.68 85.34 19 85 C19.00666183 84.16585571 19.01332367 83.33171143 19.02018738 82.47229004 C19.08045626 74.58696007 19.12605432 66.70170817 19.15543652 58.81620026 C19.17105035 54.76278303 19.19220961 50.70955714 19.22631836 46.65625 C19.25906561 42.73994584 19.27688518 38.82382499 19.28463173 34.90739441 C19.29014781 33.41795468 19.30091907 31.92852427 19.31719017 30.43916321 C19.51077964 17.46901175 19.51077964 17.46901175 13.75 6.125 C10.56001988 3.66001536 7.89813787 2.92137804 4 2 C2.64649406 1.37530495 1.30065517 0.7283669 0 0 Z " fill="#FC516F" transform="translate(350,275)"/>
<path d="M0 0 C0.33 0 0.66 0 1 0 C1.33 3.3 1.66 6.6 2 10 C2.33 10 2.66 10 3 10 C3 24.52 3 39.04 3 54 C2.01 54.495 2.01 54.495 1 55 C-0.26372044 52.47255912 -0.12022795 50.73619692 -0.11352539 47.90771484 C-0.11344986 46.84676605 -0.11337433 45.78581726 -0.11329651 44.69271851 C-0.10813522 43.54373077 -0.10297394 42.39474304 -0.09765625 41.2109375 C-0.0962413 40.03737701 -0.09482635 38.86381653 -0.09336853 37.6546936 C-0.08775689 33.89477015 -0.07520238 30.13490555 -0.0625 26.375 C-0.0574865 23.83073002 -0.05292333 21.28645912 -0.04882812 18.7421875 C-0.03778368 12.49477147 -0.02103418 6.24738994 0 0 Z " fill="#F43B4C" transform="translate(328,300)"/>
<path d="M0 0 C0.66 0 1.32 0 2 0 C2.042721 1.66611905 2.04063832 3.33382885 2 5 C0.111142 6.888858 -3.16534697 6.13056344 -5.67578125 6.1328125 C-6.35617966 6.13376923 -7.03657806 6.13472595 -7.7375946 6.13571167 C-9.18777559 6.13639433 -10.63795959 6.13453412 -12.08813477 6.13037109 C-14.26521082 6.12511419 -16.44207183 6.13026523 -18.61914062 6.13671875 C-26.78789795 6.14022812 -34.86904209 5.85507019 -43 5 C-43 4.67 -43 4.34 -43 4 C-28.81 4 -14.62 4 0 4 C0 2.68 0 1.36 0 0 Z " fill="#F7586E" transform="translate(409,369)"/>
<path d="M0 0 C0 3 0 3 -1.4375 5.3125 C-4.35583777 10.33204097 -4.15696094 15.8914622 -4.31640625 21.5859375 C-4.33718735 22.28772125 -4.35796844 22.989505 -4.37937927 23.71255493 C-4.44426324 25.93327958 -4.5034723 28.15411276 -4.5625 30.375 C-4.60574354 31.88933371 -4.6493596 33.40365683 -4.69335938 34.91796875 C-4.79988086 38.61186655 -4.90131677 42.30588354 -5 46 C-5.33 46 -5.66 46 -6 46 C-6.31682531 40.41457184 -6.58595886 34.82959521 -6.81176758 29.23974609 C-6.89514467 27.34004357 -6.99136491 25.44085841 -7.10083008 23.54248047 C-7.2562854 20.80732655 -7.36490509 18.07361415 -7.46484375 15.3359375 C-7.55184792 14.06996231 -7.55184792 14.06996231 -7.64060974 12.77841187 C-7.73327074 9.16937831 -7.77738916 6.93430995 -5.40847778 4.08721924 C-3.66825106 2.58663721 -1.92554796 1.2510893 0 0 Z " fill="#F5536B" transform="translate(335,282)"/>
<path d="M0 0 C-7.96458825 4.12451892 -16.17076176 5.7301434 -25 7 C-24.65213292 8.97536745 -24.65213292 8.97536745 -24 11 C-23.34 11.33 -22.68 11.66 -22 12 C-21.34 12.33 -20.68 12.66 -20 13 C-19.375 15.0625 -19.375 15.0625 -19 17 C-20.34709162 16.12499183 -21.67738986 15.22409067 -23 14.3125 C-23.7425 13.81363281 -24.485 13.31476563 -25.25 12.80078125 C-27 11 -27 11 -27.25 8.29296875 C-27.1675 7.53628906 -27.085 6.77960938 -27 6 C-9.14381111 -0.35559265 -9.14381111 -0.35559265 0 0 Z " fill="#F6546D" transform="translate(255,263)"/>
<path d="M0 0 C7.06676547 -0.36552235 10.87565997 0.79876044 16.75 4.9375 C18.9402342 6.94521469 20.11890901 8.18050883 21 11 C20.70865843 12.34313401 20.37974823 13.67913658 20 15 C19.29423828 13.95199219 19.29423828 13.95199219 18.57421875 12.8828125 C17.95160156 11.97273438 17.32898438 11.06265625 16.6875 10.125 C16.07261719 9.22007812 15.45773437 8.31515625 14.82421875 7.3828125 C11.94086106 3.61654229 9.31776894 2.69413981 4.8125 1.875 C3.91144531 1.70742188 3.01039063 1.53984375 2.08203125 1.3671875 C1.39496094 1.24601562 0.70789063 1.12484375 0 1 C0 0.67 0 0.34 0 0 Z " fill="#F44E69" transform="translate(350,275)"/>
<path d="M0 0 C4.57948436 1.97750461 7.56315498 3.57757755 10 8 C10.62058345 11.99468005 10.87119219 15.96187522 11 20 C10.34 20 9.68 20 9 20 C8.90203125 19.34773438 8.8040625 18.69546875 8.703125 18.0234375 C7.73600364 12.37077988 6.66795318 8.44600385 3 4 C2.01 3.34 1.02 2.68 0 2 C0 1.34 0 0.68 0 0 Z " fill="#F85271" transform="translate(171,226)"/>
<path d="M0 0 C0.66 0.66 1.32 1.32 2 2 C-0.97 2 -3.94 2 -7 2 C-7.33 2.66 -7.66 3.32 -8 4 C-11.3 3.67 -14.6 3.34 -18 3 C-13.94032356 -1.05967644 -5.57345465 -0.66972266 0 0 Z " fill="#F84D64" transform="translate(162,215)"/>
<path d="M0 0 C1.7074998 1.28062485 3.37373596 2.61767557 5 4 C5 4.66 5 5.32 5 6 C5.99 6 6.98 6 8 6 C8.391875 6.70125 8.78375 7.4025 9.1875 8.125 C11.70578064 12.11951413 15.15667437 14.34344951 19 17 C18.34 17.33 17.68 17.66 17 18 C10.73333461 13.25902176 4.5846595 8.46710248 0 2 C0 1.34 0 0.68 0 0 Z " fill="#F95163" transform="translate(102,348)"/>
<path d="M0 0 C3.80165995 2.70117944 5.61823757 4.5476544 7 9 C7.1953125 11.89453125 7.1953125 11.89453125 7.125 14.8125 C7.10695313 15.78832031 7.08890625 16.76414063 7.0703125 17.76953125 C7.03550781 18.87361328 7.03550781 18.87361328 7 20 C6.34 20 5.68 20 5 20 C4.89042969 19.11957031 4.78085937 18.23914063 4.66796875 17.33203125 C4.43013672 15.58986328 4.43013672 15.58986328 4.1875 13.8125 C3.96126953 12.08966797 3.96126953 12.08966797 3.73046875 10.33203125 C2.99306648 6.96837279 1.85486563 4.86106672 0 2 C0 1.34 0 0.68 0 0 Z " fill="#F24E67" transform="translate(264,216)"/>
<path d="M0 0 C4.23068305 2.24755037 7.53602982 5.15693835 11.03515625 8.37890625 C12.94653045 9.95588496 14.74637068 10.99113699 17 12 C17 12.66 17 13.32 17 14 C11.37501933 12.6280535 8.09877086 9.87051001 4 6 C3.195625 5.2575 2.39125 4.515 1.5625 3.75 C0 2 0 2 0 0 Z " fill="#EA5069" transform="translate(458,343)"/>
<path d="M0 0 C1.93719378 -0.05406122 3.87481921 -0.09282025 5.8125 -0.125 C6.89144531 -0.14820313 7.97039062 -0.17140625 9.08203125 -0.1953125 C12 0 12 0 15 2 C14 3 14 3 12.15234375 3.09765625 C10.1015625 3.06510417 8.05078125 3.03255208 6 3 C6 2.34 6 1.68 6 1 C4.02 1 2.04 1 0 1 C0 0.67 0 0.34 0 0 Z " fill="#F44C66" transform="translate(166,216)"/>
<path d="M0 0 C0.33 0 0.66 0 1 0 C1.03738281 0.84304688 1.07476562 1.68609375 1.11328125 2.5546875 C1.17902344 3.65039062 1.24476563 4.74609375 1.3125 5.875 C1.37050781 6.96554687 1.42851562 8.05609375 1.48828125 9.1796875 C1.74158203 10.57574219 1.74158203 10.57574219 2 12 C2.99 12.66 3.98 13.32 5 14 C3.02 14 1.04 14 -1 14 C-1.18451025 4.58997722 -1.18451025 4.58997722 0 0 Z " fill="#FA4F68" transform="translate(452,298)"/>
<path d="M0 0 C0.66 0 1.32 0 2 0 C4.25684543 5.36000789 5.36263859 9.1977825 5 15 C4.67 15 4.34 15 4 15 C3.79503906 14.36191406 3.59007812 13.72382813 3.37890625 13.06640625 C3.10949219 12.24011719 2.84007812 11.41382813 2.5625 10.5625 C2.29566406 9.73878906 2.02882813 8.91507812 1.75390625 8.06640625 C1.17844506 6.03780412 1.17844506 6.03780412 0 5 C-0.04063832 3.33382885 -0.042721 1.66611905 0 0 Z " fill="#F84C66" transform="translate(519,285)"/>
<path d="M0 0 C1.16835309 3.50505927 0.75193262 4.66433282 -0.3125 8.125 C-0.57675781 9.01445312 -0.84101562 9.90390625 -1.11328125 10.8203125 C-2 13 -2 13 -4 14 C-3.91276622 12.22825181 -3.80458345 10.45752623 -3.6875 8.6875 C-3.62949219 7.70136719 -3.57148437 6.71523438 -3.51171875 5.69921875 C-2.95377187 2.75615543 -2.31459868 1.81817001 0 0 Z " fill="#F65370" transform="translate(126,250)"/>
<path d="M0 0 C0.66 0.33 1.32 0.66 2 1 C1.8125 3.375 1.8125 3.375 1 6 C-1.5625 7.3125 -1.5625 7.3125 -4 8 C-4.25 5.6875 -4.25 5.6875 -4 3 C-2 1.1875 -2 1.1875 0 0 Z " fill="#EF4667" transform="translate(294,366)"/>
<path d="M0 0 C1.34173403 0.92543709 2.67320159 1.86577405 4 2.8125 C5.11375 3.59560547 5.11375 3.59560547 6.25 4.39453125 C6.8275 4.92433594 7.405 5.45414062 8 6 C8 6.99 8 7.98 8 9 C7.01 9 6.02 9 5 9 C4.67 8.01 4.34 7.02 4 6 C3.319375 5.319375 2.63875 4.63875 1.9375 3.9375 C1.298125 3.298125 0.65875 2.65875 0 2 C0 1.34 0 0.68 0 0 Z " fill="#D9455E" transform="translate(333,364)"/>
<path d="M0 0 C2.31 1.65 4.62 3.3 7 5 C6.67 6.65 6.34 8.3 6 10 C4.68 9.34 3.36 8.68 2 8 C2.99 8 3.98 8 5 8 C3.85123314 4.55369942 2.80859085 4.08379321 0 2 C0 1.34 0 0.68 0 0 Z " fill="#EF526F" transform="translate(272,365)"/>
<path d="M0 0 C0.33 0 0.66 0 1 0 C1.0270043 1.45823212 1.04639787 2.91660675 1.0625 4.375 C1.07410156 5.18710937 1.08570313 5.99921875 1.09765625 6.8359375 C1 9 1 9 0 11 C-0.99 10.67 -1.98 10.34 -3 10 C-2.01 6.7 -1.02 3.4 0 0 Z " fill="#F53C52" transform="translate(298,357)"/>
<path d="M0 0 C3.3 0.33 6.6 0.66 10 1 C10 1.66 10 2.32 10 3 C6.7 2.67 3.4 2.34 0 2 C0 1.34 0 0.68 0 0 Z " fill="#ED526B" transform="translate(153,355)"/>
<path d="M0 0 C-3.79692186 2.82561627 -6.18569279 4.56638908 -11 4 C-3.77464789 -1.88732394 -3.77464789 -1.88732394 0 0 Z " fill="#F3576C" transform="translate(198,352)"/>
<path d="M0 0 C0.66 0 1.32 0 2 0 C2.66 3.3 3.32 6.6 4 10 C0.48283697 6.48283697 0.45323837 4.80432667 0 0 Z " fill="#F3566B" transform="translate(91,325)"/>
<path d="M0 0 C2.27795022 2.27795022 3.05219877 3.93787293 4 7 C3.625 9.3125 3.625 9.3125 3 11 C0 4.5 0 4.5 0 0 Z " fill="#F75166" transform="translate(122,316)"/>
<path d="M0 0 C-1.32 1.32 -2.64 2.64 -4 4 C-4.99 3.67 -5.98 3.34 -7 3 C-6.67 2.01 -6.34 1.02 -6 0 C-3.42525708 -0.99667468 -2.51072708 -1.25536354 0 0 Z " fill="#E33C55" transform="translate(209,346)"/>
</svg>
